<?xml version="1.0" encoding="UTF-8" standalone="no"?>
<!DOCTYPE svg PUBLIC "-//W3C//DTD SVG 1.1//EN" "http://www.w3.org/Graphics/SVG/1.1/DTD/svg11.dtd">
<svg width="100%" height="100%" viewBox="0 0 561 315" version="1.1" xmlns="http://www.w3.org/2000/svg" xmlns:xlink="http://www.w3.org/1999/xlink" xml:space="preserve" xmlns:serif="http://www.serif.com/" style="fill-rule:evenodd;clip-rule:evenodd;stroke-linejoin:round;stroke-miterlimit:2;">
    <g id="Artboard1" transform="matrix(1,0,0,1.02379,-95.8847,-35.1505)">
        <rect x="95.885" y="34.334" width="560.159" height="307.166" style="fill:none;"/>
        <g transform="matrix(0.629102,0,0,0.976766,-269.726,-290.919)">
            <path d="M996.534,467.221C979.328,491.867 958.407,521.189 933.012,555.876C892.732,610.967 839.729,632.343 787.798,636.844C690.99,645.235 598.314,595.845 598.314,595.845C598.314,595.845 690.125,647.238 788.5,640.398C842.655,636.632 898.809,615.43 943.041,558.878C965.376,530.287 984.473,505.377 1000.76,483.749C1002.54,487.876 1004.9,491.927 1007.9,495.876C1016.4,507.037 1025.66,513.197 1034.25,516.17C1022.39,537.927 1012.53,561.213 1010.3,581.338C1007.99,602.146 1014.15,619.756 1031.04,630.392C1054.57,645.088 1080.19,641.239 1106.59,624.285C1130.95,608.642 1156.9,581.106 1183.92,553.888C1209.45,528.174 1235.85,502.716 1263.97,489.091C1288.34,477.13 1315.64,475.014 1341.68,477.625C1401.6,483.633 1455.09,514.092 1455.09,514.092C1455.09,514.092 1403.66,480.963 1343.24,472.491C1314.67,468.485 1284.28,470.042 1256.04,482.295C1225.74,495.617 1195.81,521.059 1167.5,547.14C1139.78,572.687 1113.67,598.796 1089.49,613.429C1074.88,622.271 1061.86,627.05 1049.52,618.963C1042.94,614.679 1039.54,608.683 1037.87,601.72C1035.54,592.038 1036.89,580.6 1040.21,568.428C1044.8,551.615 1053.31,533.495 1062.82,516.585C1066.82,515.39 1070.72,513.687 1074.5,511.525C1100.67,496.521 1120.53,455.228 1120.53,455.228C1121.97,452.073 1120.34,448.681 1116.36,446.555C1112.39,444.429 1106.81,443.962 1102.09,445.36C1102.09,445.36 1088.87,449.054 1075.05,459.67C1069.12,464.222 1063.05,470.11 1057.92,477.596C1053.06,484.785 1047.93,492.703 1042.92,501.047L1042.15,500.608C1038.06,498.187 1034.01,494.427 1029.83,489.138C1022.14,479.464 1019.31,468.992 1019.72,458.35C1025.17,450.992 1030.21,444.097 1034.89,437.649C1079.86,375.666 1090.87,354.769 1090.87,354.769C1092.32,351.94 1090.36,348.862 1086.22,347.437C1082.07,346.012 1076.9,346.643 1073.9,348.939C1073.9,348.939 1022.32,387.697 1003.31,431.235C998.132,443.102 995.416,455.303 996.534,467.221Z"/>
        </g>
    </g>
</svg>
