<?xml version="1.0" encoding="UTF-8" standalone="no"?>
<!DOCTYPE svg PUBLIC "-//W3C//DTD SVG 1.1//EN" "http://www.w3.org/Graphics/SVG/1.1/DTD/svg11.dtd">
<svg width="100%" height="100%" viewBox="0 0 1705 589" version="1.1" xmlns="http://www.w3.org/2000/svg" xmlns:xlink="http://www.w3.org/1999/xlink" xml:space="preserve" xmlns:serif="http://www.serif.com/" style="fill-rule:evenodd;clip-rule:evenodd;stroke-linecap:square;stroke-linejoin:round;stroke-miterlimit:1.5;">
    <g id="Artboard1" transform="matrix(1,0,0,1,-183.81,-385.648)">
        <rect x="183.81" y="385.648" width="1704.52" height="588.113" style="fill:none;"/>
        <g transform="matrix(1,0,0,1,-75.8507,13.8908)">
            <g transform="matrix(0.618648,0,0,0.376941,-273.17,376.648)">
                <path d="M1484.09,634.116C1484.09,589.322 1461.94,552.954 1434.64,552.954L941.915,552.954C914.622,552.954 892.464,589.322 892.464,634.116L892.464,796.439C892.464,841.233 914.622,877.601 941.915,877.601L1434.64,877.601C1461.94,877.601 1484.09,841.233 1484.09,796.439L1484.09,634.116Z" style="fill:rgb(235,235,235);"/>
            </g>
            <g transform="matrix(0.81503,0,0,0.81503,363.122,-26.0898)">
                <circle cx="369.707" cy="824.944" r="9.202" style="fill:rgb(115,115,115);"/>
            </g>
            <g transform="matrix(2.60034,0,0,2.60034,-2532.96,-786.004)">
                <text x="1135.46px" y="549.048px" style="font-family:'DesySansOfficeCn-Regular', 'DesySans Office Cn', sans-serif;font-stretch:condensed;font-size:12px;">S<tspan x="1141.54px 1147.66px 1153.5px 1157.08px 1161.88px " y="549.048px 549.048px 549.048px 549.048px 549.048px ">ource</tspan></text>
                <text x="1127.41px" y="561.048px" style="font-family:'DesySansOfficeCn-Regular', 'DesySans Office Cn', sans-serif;font-stretch:condensed;font-size:12px;">C<tspan x="1133.09px 1139.21px " y="561.048px 561.048px ">on</tspan>nec<tspan x="1161.9px 1165.68px 1171.8px " y="561.048px 561.048px 561.048px ">tor</tspan></text>
            </g>
            <g transform="matrix(1,0,0,1,-278.362,-180.272)">
                <text x="829.789px" y="832.591px" style="font-family:'DesySansOfficeCn-Regular', 'DesySans Office Cn', sans-serif;font-stretch:condensed;font-size:20px;">ZMQ<tspan x="866.664px 870.932px " y="832.591px 832.591px "> P</tspan>USH</text>
            </g>
        </g>
        <g transform="matrix(1,0,0,1,0.810045,0.648232)">
            <g transform="matrix(1,0,0,1,-17.8856,232.199)">
                <g transform="matrix(0.618648,0,0,0.376941,263.504,157.492)">
                    <path d="M1484.09,634.116C1484.09,589.322 1461.94,552.954 1434.64,552.954L941.915,552.954C914.622,552.954 892.464,589.322 892.464,634.116L892.464,796.439C892.464,841.233 914.622,877.601 941.915,877.601L1434.64,877.601C1461.94,877.601 1484.09,841.233 1484.09,796.439L1484.09,634.116Z" style="fill:rgb(235,235,235);"/>
                </g>
                <g transform="matrix(2.60034,0,0,2.60034,-1996.29,-1004.97)">
                    <text x="1132.15px" y="549.048px" style="font-family:'DesySansOfficeCn-Regular', 'DesySans Office Cn', sans-serif;font-stretch:condensed;font-size:12px;">Analy<tspan x="1158.26px 1163.43px " y="549.048px 549.048px ">si</tspan>s</text>
                    <text x="1134.58px" y="561.048px" style="font-family:'DesySansOfficeCn-Regular', 'DesySans Office Cn', sans-serif;font-stretch:condensed;font-size:12px;">W<tspan x="1143.55px 1149.67px 1153.76px 1158.68px 1164.64px " y="561.048px 561.048px 561.048px 561.048px 561.048px ">orker</tspan></text>
                </g>
                <g transform="matrix(1,0,0,1,257.312,-399.427)">
                    <text x="829.789px" y="832.591px" style="font-family:'DesySansOfficeCn-Regular', 'DesySans Office Cn', sans-serif;font-stretch:condensed;font-size:20px;">ZMQ<tspan x="866.664px 870.932px " y="832.591px 832.591px "> P</tspan>USH</text>
                </g>
                <g transform="matrix(1,0,0,1,-4.68824,-399.427)">
                    <text x="829.789px" y="832.591px" style="font-family:'DesySansOfficeCn-Regular', 'DesySans Office Cn', sans-serif;font-stretch:condensed;font-size:20px;">ZMQ<tspan x="866.664px 870.932px " y="832.591px 832.591px "> P</tspan>ULL</text>
                </g>
                <g transform="matrix(0.81503,0,0,0.81503,496.693,-245.246)">
                    <circle cx="369.707" cy="824.944" r="9.202" style="fill:rgb(115,115,115);"/>
                </g>
                <g transform="matrix(0.81503,0,0,0.81503,896.813,-245.246)">
                    <circle cx="369.707" cy="824.944" r="9.202" style="fill:rgb(115,115,115);"/>
                </g>
            </g>
            <g transform="matrix(1,0,0,1,-17.8856,395.643)">
                <g transform="matrix(0.618648,0,0,0.376941,263.504,157.492)">
                    <path d="M1484.09,634.116C1484.09,589.322 1461.94,552.954 1434.64,552.954L941.915,552.954C914.622,552.954 892.464,589.322 892.464,634.116L892.464,796.439C892.464,841.233 914.622,877.601 941.915,877.601L1434.64,877.601C1461.94,877.601 1484.09,841.233 1484.09,796.439L1484.09,634.116Z" style="fill:rgb(235,235,235);"/>
                </g>
                <g transform="matrix(2.60034,0,0,2.60034,-1996.29,-1004.97)">
                    <text x="1132.15px" y="549.048px" style="font-family:'DesySansOfficeCn-Regular', 'DesySans Office Cn', sans-serif;font-stretch:condensed;font-size:12px;">Analy<tspan x="1158.26px 1163.43px " y="549.048px 549.048px ">si</tspan>s</text>
                    <text x="1134.58px" y="561.048px" style="font-family:'DesySansOfficeCn-Regular', 'DesySans Office Cn', sans-serif;font-stretch:condensed;font-size:12px;">W<tspan x="1143.55px 1149.67px 1153.76px 1158.68px 1164.64px " y="561.048px 561.048px 561.048px 561.048px 561.048px ">orker</tspan></text>
                </g>
                <g transform="matrix(1,0,0,1,257.312,-399.427)">
                    <text x="829.789px" y="832.591px" style="font-family:'DesySansOfficeCn-Regular', 'DesySans Office Cn', sans-serif;font-stretch:condensed;font-size:20px;">ZMQ<tspan x="866.664px 870.932px " y="832.591px 832.591px "> P</tspan>USH</text>
                </g>
                <g transform="matrix(1,0,0,1,-4.68824,-399.427)">
                    <text x="829.789px" y="832.591px" style="font-family:'DesySansOfficeCn-Regular', 'DesySans Office Cn', sans-serif;font-stretch:condensed;font-size:20px;">ZMQ<tspan x="866.664px 870.932px " y="832.591px 832.591px "> P</tspan>ULL</text>
                </g>
                <g transform="matrix(0.81503,0,0,0.81503,496.693,-245.246)">
                    <circle cx="369.707" cy="824.944" r="9.202" style="fill:rgb(115,115,115);"/>
                </g>
                <g transform="matrix(0.81503,0,0,0.81503,896.813,-245.246)">
                    <circle cx="369.707" cy="824.944" r="9.202" style="fill:rgb(115,115,115);"/>
                </g>
            </g>
            <g transform="matrix(1,0,0,1,-17.8856,69.1535)">
                <g transform="matrix(0.618648,0,0,0.376941,263.504,157.492)">
                    <path d="M1484.09,634.116C1484.09,589.322 1461.94,552.954 1434.64,552.954L941.915,552.954C914.622,552.954 892.464,589.322 892.464,634.116L892.464,796.439C892.464,841.233 914.622,877.601 941.915,877.601L1434.64,877.601C1461.94,877.601 1484.09,841.233 1484.09,796.439L1484.09,634.116Z" style="fill:rgb(235,235,235);"/>
                </g>
                <g transform="matrix(2.60034,0,0,2.60034,-1996.29,-1004.97)">
                    <text x="1132.15px" y="549.048px" style="font-family:'DesySansOfficeCn-Regular', 'DesySans Office Cn', sans-serif;font-stretch:condensed;font-size:12px;">Analy<tspan x="1158.26px 1163.43px " y="549.048px 549.048px ">si</tspan>s</text>
                    <text x="1134.58px" y="561.048px" style="font-family:'DesySansOfficeCn-Regular', 'DesySans Office Cn', sans-serif;font-stretch:condensed;font-size:12px;">W<tspan x="1143.55px 1149.67px 1153.76px 1158.68px 1164.64px " y="561.048px 561.048px 561.048px 561.048px 561.048px ">orker</tspan></text>
                </g>
                <g transform="matrix(1,0,0,1,257.312,-399.427)">
                    <text x="829.789px" y="832.591px" style="font-family:'DesySansOfficeCn-Regular', 'DesySans Office Cn', sans-serif;font-stretch:condensed;font-size:20px;">ZMQ<tspan x="866.664px 870.932px " y="832.591px 832.591px "> P</tspan>USH</text>
                </g>
                <g transform="matrix(1,0,0,1,-4.68824,-399.427)">
                    <text x="829.789px" y="832.591px" style="font-family:'DesySansOfficeCn-Regular', 'DesySans Office Cn', sans-serif;font-stretch:condensed;font-size:20px;">ZMQ<tspan x="866.664px 870.932px " y="832.591px 832.591px "> P</tspan>ULL</text>
                </g>
                <g transform="matrix(0.81503,0,0,0.81503,496.693,-245.246)">
                    <circle cx="369.707" cy="824.944" r="9.202" style="fill:rgb(115,115,115);"/>
                </g>
                <g transform="matrix(0.81503,0,0,0.81503,896.813,-245.246)">
                    <circle cx="369.707" cy="824.944" r="9.202" style="fill:rgb(115,115,115);"/>
                </g>
            </g>
        </g>
        <g transform="matrix(1,0,0,1,-245.917,66.5951)">
            <text x="888.398px" y="832.591px" style="font-family:'DesySansOfficeCn-Regular', 'DesySans Office Cn', sans-serif;font-stretch:condensed;font-size:20px;">e<tspan x="897.88px 906.074px 916.005px 925.37px 931.62px 935.888px 945.605px 955.136px 963.408px 973.339px " y="832.591px 832.591px 832.591px 832.591px 832.591px 832.591px 832.591px 832.591px 832.591px 832.591px ">vent based</tspan></text>
            <text x="890.283px" y="852.591px" style="font-family:'DesySansOfficeCn-Regular', 'DesySans Office Cn', sans-serif;font-stretch:condensed;font-size:20px;">dis<tspan x="912.675px 919.511px " y="852.591px 852.591px ">tr</tspan>ibu<tspan x="950.195px 957.031px " y="852.591px 852.591px ">ti</tspan>on</text>
        </g>
        <g transform="matrix(1,0,0,1,310.968,66.5951)">
            <text x="876.225px" y="832.591px" style="font-family:'DesySansOfficeCn-Regular', 'DesySans Office Cn', sans-serif;font-stretch:condensed;font-size:20px;">pr<tspan x="892.133px 902.338px " y="832.591px 832.591px ">op</tspan>ert<tspan x="935.561px 943.793px 948.061px 957.778px 967.309px 975.58px 985.512px " y="832.591px 832.591px 832.591px 832.591px 832.591px 832.591px 832.591px ">y based</tspan></text>
            <text x="890.283px" y="852.591px" style="font-family:'DesySansOfficeCn-Regular', 'DesySans Office Cn', sans-serif;font-stretch:condensed;font-size:20px;">dis<tspan x="912.675px 919.511px " y="852.591px 852.591px ">tr</tspan>ibu<tspan x="950.195px 957.031px " y="852.591px 852.591px ">ti</tspan>on</text>
        </g>
        <g transform="matrix(1,0,0,1,0.810045,21.1551)">
            <g transform="matrix(1,0,0,1,528.47,295.432)">
                <g transform="matrix(0.618648,0,0,0.376941,263.504,157.492)">
                    <path d="M1484.09,634.116C1484.09,589.322 1461.94,552.954 1434.64,552.954L941.915,552.954C914.622,552.954 892.464,589.322 892.464,634.116L892.464,796.439C892.464,841.233 914.622,877.601 941.915,877.601L1434.64,877.601C1461.94,877.601 1484.09,841.233 1484.09,796.439L1484.09,634.116Z" style="fill:rgb(235,235,235);"/>
                </g>
                <g transform="matrix(2.60034,0,0,2.60034,-1996.29,-1004.97)">
                    <text x="1141.52px" y="549.048px" style="font-family:'DesySansOfficeCn-Regular', 'DesySans Office Cn', sans-serif;font-stretch:condensed;font-size:12px;">Sink</text>
                    <text x="1127.41px" y="561.048px" style="font-family:'DesySansOfficeCn-Regular', 'DesySans Office Cn', sans-serif;font-stretch:condensed;font-size:12px;">C<tspan x="1133.09px 1139.21px " y="561.048px 561.048px ">on</tspan>nec<tspan x="1161.9px 1165.68px 1171.8px " y="561.048px 561.048px 561.048px ">tor</tspan></text>
                </g>
                <g transform="matrix(1,0,0,1,257.312,-399.427)">
                    <text x="829.789px" y="832.591px" style="font-family:'DesySansOfficeCn-Regular', 'DesySans Office Cn', sans-serif;font-stretch:condensed;font-size:20px;">ZMQ<tspan x="866.664px 870.932px " y="832.591px 832.591px "> P</tspan>UB</text>
                </g>
                <g transform="matrix(1,0,0,1,-4.68824,-399.427)">
                    <text x="829.789px" y="832.591px" style="font-family:'DesySansOfficeCn-Regular', 'DesySans Office Cn', sans-serif;font-stretch:condensed;font-size:20px;">ZMQ<tspan x="866.664px 870.932px " y="832.591px 832.591px "> P</tspan>ULL</text>
                </g>
                <g transform="matrix(0.81503,0,0,0.81503,499.578,-245.246)">
                    <circle cx="369.707" cy="824.944" r="9.202" style="fill:rgb(115,115,115);"/>
                </g>
                <g transform="matrix(0.81503,0,0,0.81503,896.927,-245.246)">
                    <circle cx="369.707" cy="824.944" r="9.202" style="fill:rgb(115,115,115);"/>
                </g>
            </g>
            <g transform="matrix(1,0,0,1,528.47,295.432)">
                <g transform="matrix(0.618648,0,0,0.376941,263.504,157.492)">
                    <path d="M1484.09,634.116C1484.09,589.322 1461.94,552.954 1434.64,552.954L941.915,552.954C914.622,552.954 892.464,589.322 892.464,634.116L892.464,796.439C892.464,841.233 914.622,877.601 941.915,877.601L1434.64,877.601C1461.94,877.601 1484.09,841.233 1484.09,796.439L1484.09,634.116Z" style="fill:rgb(235,235,235);"/>
                </g>
                <g transform="matrix(2.60034,0,0,2.60034,-1996.29,-1004.97)">
                    <text x="1141.52px" y="549.048px" style="font-family:'DesySansOfficeCn-Regular', 'DesySans Office Cn', sans-serif;font-stretch:condensed;font-size:12px;">Sink</text>
                    <text x="1127.41px" y="561.048px" style="font-family:'DesySansOfficeCn-Regular', 'DesySans Office Cn', sans-serif;font-stretch:condensed;font-size:12px;">C<tspan x="1133.09px 1139.21px " y="561.048px 561.048px ">on</tspan>nec<tspan x="1161.9px 1165.68px 1171.8px " y="561.048px 561.048px 561.048px ">tor</tspan></text>
                </g>
                <g transform="matrix(1,0,0,1,257.312,-399.427)">
                    <text x="829.789px" y="832.591px" style="font-family:'DesySansOfficeCn-Regular', 'DesySans Office Cn', sans-serif;font-stretch:condensed;font-size:20px;">ZMQ<tspan x="866.664px 870.932px " y="832.591px 832.591px "> P</tspan>UB</text>
                </g>
                <g transform="matrix(1,0,0,1,-4.68824,-399.427)">
                    <text x="829.789px" y="832.591px" style="font-family:'DesySansOfficeCn-Regular', 'DesySans Office Cn', sans-serif;font-stretch:condensed;font-size:20px;">ZMQ<tspan x="866.664px 870.932px " y="832.591px 832.591px "> P</tspan>ULL</text>
                </g>
                <g transform="matrix(0.81503,0,0,0.81503,499.578,-245.246)">
                    <circle cx="369.707" cy="824.944" r="9.202" style="fill:rgb(115,115,115);"/>
                </g>
                <g transform="matrix(0.81503,0,0,0.81503,896.927,-245.246)">
                    <circle cx="369.707" cy="824.944" r="9.202" style="fill:rgb(115,115,115);"/>
                </g>
            </g>
            <g transform="matrix(1,0,0,1,528.47,128.351)">
                <g transform="matrix(0.618648,0,0,0.376941,263.504,157.492)">
                    <path d="M1484.09,634.116C1484.09,589.322 1461.94,552.954 1434.64,552.954L941.915,552.954C914.622,552.954 892.464,589.322 892.464,634.116L892.464,796.439C892.464,841.233 914.622,877.601 941.915,877.601L1434.64,877.601C1461.94,877.601 1484.09,841.233 1484.09,796.439L1484.09,634.116Z" style="fill:rgb(235,235,235);"/>
                </g>
                <g transform="matrix(2.60034,0,0,2.60034,-1996.29,-1004.97)">
                    <text x="1141.52px" y="549.048px" style="font-family:'DesySansOfficeCn-Regular', 'DesySans Office Cn', sans-serif;font-stretch:condensed;font-size:12px;">Sink</text>
                    <text x="1127.41px" y="561.048px" style="font-family:'DesySansOfficeCn-Regular', 'DesySans Office Cn', sans-serif;font-stretch:condensed;font-size:12px;">C<tspan x="1133.09px 1139.21px " y="561.048px 561.048px ">on</tspan>nec<tspan x="1161.9px 1165.68px 1171.8px " y="561.048px 561.048px 561.048px ">tor</tspan></text>
                </g>
                <g transform="matrix(1,0,0,1,257.312,-399.427)">
                    <text x="829.789px" y="832.591px" style="font-family:'DesySansOfficeCn-Regular', 'DesySans Office Cn', sans-serif;font-stretch:condensed;font-size:20px;">ZMQ<tspan x="866.664px 870.932px " y="832.591px 832.591px "> P</tspan>UB</text>
                </g>
                <g transform="matrix(1,0,0,1,-4.68824,-399.427)">
                    <text x="829.789px" y="832.591px" style="font-family:'DesySansOfficeCn-Regular', 'DesySans Office Cn', sans-serif;font-stretch:condensed;font-size:20px;">ZMQ<tspan x="866.664px 870.932px " y="832.591px 832.591px "> P</tspan>ULL</text>
                </g>
                <g transform="matrix(0.81503,0,0,0.81503,499.578,-245.246)">
                    <circle cx="369.707" cy="824.944" r="9.202" style="fill:rgb(115,115,115);"/>
                </g>
                <g transform="matrix(0.81503,0,0,0.81503,896.927,-245.246)">
                    <circle cx="369.707" cy="824.944" r="9.202" style="fill:rgb(115,115,115);"/>
                </g>
            </g>
        </g>
        <g transform="matrix(1,0,0,1,0.810045,0.847569)">
            <path d="M587.784,659.308L780.13,494.567" style="fill:none;stroke:rgb(115,115,115);stroke-width:4.5px;"/>
            <path d="M587.784,659.308L780.13,659.308" style="fill:none;stroke:rgb(115,115,115);stroke-width:4.5px;"/>
            <path d="M587.784,659.308L780.13,824.049" style="fill:none;stroke:rgb(115,115,115);stroke-width:4.5px;"/>
        </g>
        <g transform="matrix(1,0,0,1,0.810045,0.648232)">
            <path d="M1180.25,659.507L1329.37,575.967" style="fill:none;stroke:rgb(115,115,115);stroke-width:4.5px;"/>
            <path d="M1180.25,659.507L1329.37,743.047" style="fill:none;stroke:rgb(115,115,115);stroke-width:4.5px;"/>
            <path d="M1180.25,824.248L1329.37,743.047" style="fill:none;stroke:rgb(115,115,115);stroke-width:4.5px;"/>
            <path d="M1180.25,824.248L1329.37,575.967" style="fill:none;stroke:rgb(115,115,115);stroke-width:4.5px;"/>
            <path d="M1180.25,496.262L1329.37,575.967" style="fill:none;stroke:rgb(115,115,115);stroke-width:4.5px;"/>
            <path d="M1180.25,496.262L1329.37,743.047" style="fill:none;stroke:rgb(115,115,115);stroke-width:4.5px;"/>
        </g>
        <g transform="matrix(1,0,0,1,0.810045,0.648232)">
            <g transform="matrix(0.558073,0,0,1,763.083,0)">
                <path d="M1726.72,577.137L1957.44,577.137" style="fill:none;stroke:rgb(115,115,115);stroke-width:5.56px;stroke-dasharray:5.56,11.11,0,0;"/>
            </g>
            <g transform="matrix(0.558073,0,0,1,763.083,0)">
                <path d="M1726.72,743.047L1957.44,743.047" style="fill:none;stroke:rgb(115,115,115);stroke-width:5.56px;stroke-dasharray:5.56,11.11,0,0;"/>
            </g>
        </g>
        <g transform="matrix(1,0,0,1,858.041,-268.908)">
            <text x="894.34px" y="832.591px" style="font-family:'DesySansOfficeCn-Regular', 'DesySans Office Cn', sans-serif;font-stretch:condensed;font-size:20px;">pr<tspan x="910.248px 920.453px " y="832.591px 832.591px ">op</tspan>ert<tspan x="953.676px 961.909px 965.424px " y="832.591px 832.591px 832.591px ">y A</tspan></text>
        </g>
        <g transform="matrix(1,0,0,1,858.041,-103.261)">
            <text x="894.535px" y="832.591px" style="font-family:'DesySansOfficeCn-Regular', 'DesySans Office Cn', sans-serif;font-stretch:condensed;font-size:20px;">pr<tspan x="910.444px 920.649px " y="832.591px 832.591px ">op</tspan>ert<tspan x="953.871px 962.104px 966.371px " y="832.591px 832.591px 832.591px ">y B</tspan></text>
        </g>
    </g>
</svg>
